<?xml version="1.0" encoding="utf-8"?>
<!-- Generator: Adobe Illustrator 19.0.1, SVG Export Plug-In . SVG Version: 6.00 Build 0)  -->
<svg version="1.1" id="Слой_1" xmlns="http://www.w3.org/2000/svg" xmlns:xlink="http://www.w3.org/1999/xlink" x="0px" y="0px"
	 viewBox="-233 401.5 127.3 38.4" style="enable-background:new -233 401.5 127.3 38.4;" xml:space="preserve">
<style type="text/css">
	.st0{fill:#FFFFFF;}
	.st1{fill:url(#SVGID_1_);}
</style>
<path class="st0" d="M-214.7,409.6v3.8h-6.4v17.6h-4.5v-17.6h-6.4v-3.8H-214.7z"/>
<path class="st0" d="M-198.4,410.1c0.8,0.3,1.5,0.8,2,1.5c0.5,0.5,0.8,1.1,1.1,1.8c0.3,0.7,0.4,1.4,0.4,2.2c0,1-0.3,2-0.8,3
	c-0.5,1-1.4,1.7-2.5,2.1c1,0.4,1.7,1,2.1,1.7c0.4,0.7,0.6,1.8,0.6,3.3v1.4c0,1,0,1.6,0.1,2c0.1,0.5,0.4,1,0.8,1.2v0.5h-4.9
	c-0.1-0.5-0.2-0.9-0.3-1.1c-0.1-0.6-0.2-1.2-0.2-1.8l0-2c0-1.4-0.3-2.3-0.7-2.7c-0.5-0.5-1.3-0.7-2.5-0.7h-4.4v8.4h-4.4v-21.3h10.2
	C-200.3,409.6-199.2,409.8-198.4,410.1z M-207.6,413.3v5.7h4.8c1,0,1.7-0.1,2.1-0.3c0.8-0.4,1.3-1.2,1.3-2.4c0-1.3-0.4-2.2-1.2-2.6
	c-0.5-0.3-1.1-0.4-2.1-0.4H-207.6z"/>
<path class="st0" d="M-184.6,409.6h5l7.5,21.3h-4.8l-1.4-4.4h-7.9l-1.4,4.4h-4.7L-184.6,409.6z M-184.9,422.8h5.5l-2.7-8.4
	L-184.9,422.8z"/>
<path class="st0" d="M-167.3,411.8c1.7-1.8,3.9-2.6,6.6-2.6c3.6,0,6.1,1.2,7.8,3.5c0.9,1.3,1.4,2.6,1.5,4h-4.5
	c-0.3-1-0.6-1.8-1.1-2.3c-0.8-0.9-2-1.4-3.5-1.4c-1.6,0-2.8,0.7-3.8,2c-0.9,1.3-1.4,3.2-1.4,5.5c0,2.4,0.5,4.2,1.5,5.4
	c1,1.2,2.2,1.8,3.7,1.8c1.5,0,2.7-0.5,3.5-1.5c0.4-0.5,0.8-1.4,1.1-2.5h4.4c-0.4,2.3-1.4,4.2-2.9,5.7c-1.6,1.5-3.6,2.2-6,2.2
	c-3,0-5.4-1-7.2-3c-1.7-2-2.6-4.7-2.6-8.1C-170.2,416.7-169.2,413.8-167.3,411.8z"/>
<path class="st0" d="M-147.8,409.6h4.4v8.8l8.2-8.8h5.8l-8.8,8.8l9.2,12.6h-5.7l-6.6-9.3l-2.1,2.2v7.1h-4.4V409.6z"/>
<linearGradient id="SVGID_1_" gradientUnits="userSpaceOnUse" x1="-127.282" y1="420.2001" x2="-106.8333" y2="420.2001">
	<stop  offset="0" style="stop-color:#EE579E"/>
	<stop  offset="0.5934" style="stop-color:#EF587A"/>
	<stop  offset="1" style="stop-color:#F05A62"/>
</linearGradient>
<path class="st1" d="M-110.1,429c-1.6,1.7-3.9,2.5-7,2.5c-3,0-5.4-0.8-7-2.5c-2.2-2-3.2-5-3.2-8.8c0-3.9,1.1-6.8,3.2-8.8
	c1.6-1.7,3.9-2.5,7-2.5c3,0,5.4,0.8,7,2.5c2.2,2,3.2,4.9,3.2,8.8C-106.8,424-107.9,427-110.1,429z M-112.8,425.8
	c1-1.3,1.6-3.2,1.6-5.6c0-2.4-0.5-4.2-1.6-5.5c-1-1.3-2.4-2-4.2-2c-1.8,0-3.2,0.7-4.2,2c-1.1,1.3-1.6,3.2-1.6,5.6s0.5,4.3,1.6,5.6
	c1.1,1.3,2.5,2,4.2,2C-115.3,427.7-113.9,427.1-112.8,425.8z"/>
</svg>
